# xmcd
#
# Track frame offsets: 
#        150
#        28789
#        54818
#        79738
#        99674
#        123560
#        150138
#        170137
#        187705
#        215345
#        228836
#
# Disc length: 3368 seconds
#
# Revision: 0
# Processed by: cddbd v1.5.2PL0 Copyright (c) Steve Scherf et al.
# Submitted via: ExactAudioCopy v1.3
#
DISCID=7d0d260b
DTITLE=The Blues Infusion - Stepping Keys
DYEAR=2013
DGENRE=Modern Electric Blues
TTITLE0=Down Home Blues
TTITLE1=I Look So Tough
TTITLE2=Darker Side
TTITLE3=You Upset Me Baby
TTITLE4=Same As You
TTITLE5=Reconsider Baby
TTITLE6=Jimmy M
TTITLE7=I Just Wanna Make Love To You
TTITLE8=When I Leave Her
TTITLE9=I Put A Spell On You
TTITLE10=Spin Doctor
EXTD=
EXTT0=
EXTT1=
EXTT2=
EXTT3=
EXTT4=
EXTT5=
EXTT6=
EXTT7=
EXTT8=
EXTT9=
EXTT10=
PLAYORDER=
